Coordinates
version=1
nRows=30
nColumns=34
inDegrees=no

Units are S.I. units (second, meters, Newtons, ...)
If the header above contains a line with 'inDegrees', this indicates whether rotational values are in degrees (yes) or radians (no).

endheader
time	pelvis_tilt	pelvis_list	pelvis_rotation	pelvis_tx	pelvis_ty	pelvis_tz	hip_flexion_r	hip_adduction_r	hip_rotation_r	knee_angle_r	ankle_angle_r	subtalar_angle_r	mtp_angle_r	hip_flexion_l	hip_adduction_l	hip_rotation_l	knee_angle_l	ankle_angle_l	subtalar_angle_l	mtp_angle_l	lumbar_extension	lumbar_bending	lumbar_rotation	arm_flex_r	arm_add_r	arm_rot_r	elbow_flex_r	pro_sup_r	arm_flex_l	arm_add_l	arm_rot_l	elbow_flex_l	pro_sup_l
1.95	-0.471872	0.0788432	-0.059969	-0.227888	0.795513	-0.55412	1.1677	-0.0382386	0.249783	1.23405	0.415889	-0.376599	0	1.19518	-0.164969	-0.0540989	1.20876	0.320341	-0.328835	0	-0.044127	-0.0719538	0.0863763	2.54762	-0.197288	0.629691	1.45801	1.68758	2.59995	-0.144338	0.720085	1.29537	2.02223
1.96	-0.454295	0.0775708	-0.064192	-0.221244	0.811561	-0.55319	1.12012	-0.0391224	0.238652	1.18919	0.386849	-0.336864	0	1.1457	-0.162881	-0.0653309	1.16414	0.295063	-0.289929	0	-0.0372325	-0.0707114	0.0972377	2.56999	-0.197294	0.633222	1.43971	1.69688	2.61954	-0.144933	0.741932	1.28292	2.02896
1.97	-0.436191	0.0762851	-0.0688633	-0.214387	0.8288	-0.552089	1.0704	-0.0407293	0.226697	1.14006	0.35299	-0.293918	0	1.09285	-0.161388	-0.0782302	1.114	0.266066	-0.247584	0	-0.0323567	-0.0690307	0.105303	2.58557	-0.19345	0.627575	1.41811	1.70193	2.6381	-0.149115	0.764605	1.27595	2.03645
1.98	-0.422529	0.0754028	-0.0727684	-0.206531	0.847249	-0.550964	1.02109	-0.0440928	0.213329	1.08371	0.315111	-0.244799	0	1.03971	-0.159792	-0.093722	1.056	0.232543	-0.199067	0	-0.021537	-0.0658231	0.107485	2.58835	-0.183407	0.610068	1.39715	1.7037	2.65339	-0.160432	0.789916	1.27718	2.05113
1.99	-0.411331	0.0766925	-0.0753845	-0.197873	0.866801	-0.549831	0.970809	-0.0512576	0.199758	1.02017	0.271748	-0.189062	0	0.984234	-0.156292	-0.112763	0.989414	0.193351	-0.142958	0	-0.00656635	-0.0632003	0.102653	2.57899	-0.166606	0.583544	1.375	1.70816	2.6674	-0.178691	0.819408	1.28231	2.07645
2	-0.396002	0.0791527	-0.0776051	-0.189283	0.887472	-0.548878	0.914634	-0.0623857	0.184928	0.950759	0.221132	-0.127534	0	0.921341	-0.150929	-0.133479	0.915339	0.147326	-0.0813201	0	0.00486082	-0.0629582	0.0978776	2.56242	-0.152312	0.557364	1.35129	1.71594	2.67734	-0.192982	0.847307	1.28359	2.09
2.01	-0.375361	0.0808886	-0.0793513	-0.181154	0.909128	-0.548301	0.851671	-0.0766401	0.166568	0.875813	0.162214	-0.0611742	0	0.850796	-0.144333	-0.153318	0.834056	0.0913194	-0.0189746	0	0.0108678	-0.0641117	0.0975732	2.54206	-0.146805	0.538177	1.32751	1.72001	2.67975	-0.197527	0.8678	1.27928	2.09
2.02	-0.353855	0.0825529	-0.0792106	-0.173255	0.931391	-0.548027	0.785614	-0.0940755	0.144948	0.794499	0.0928013	0.00736288	0	0.776477	-0.135345	-0.171474	0.743737	0.0203666	0.0391137	0	0.0155238	-0.0655617	0.0976342	2.51886	-0.145726	0.526177	1.3031	1.71827	2.67741	-0.19894	0.882219	1.27392	2.09
2.03	-0.333142	0.0852739	-0.0773726	-0.165502	0.954053	-0.547942	0.717524	-0.114019	0.122495	0.705283	0.00901555	0.0742175	0	0.699237	-0.123031	-0.187361	0.642601	-0.0689517	0.0882594	0	0.0202007	-0.0674913	0.0959402	2.4927	-0.145834	0.520204	1.27834	1.71479	2.67237	-0.202395	0.893576	1.27159	2.09
2.04	-0.312374	0.0884832	-0.0758448	-0.157975	0.976975	-0.547948	0.646444	-0.134252	0.100464	0.607235	-0.0915934	0.137005	0	0.618676	-0.109312	-0.200602	0.531215	-0.178261	0.125194	0	0.0244317	-0.0697347	0.0957061	2.4627	-0.1493	0.519516	1.25651	1.71028	2.66201	-0.206592	0.900286	1.27171	2.09
2.05	-0.292091	0.0904199	-0.0756178	-0.15062	0.999831	-0.547854	0.573445	-0.152679	0.0759639	0.501213	-0.209804	0.194352	0	0.537455	-0.0980192	-0.213174	0.412127	-0.311296	0.14872	0	0.0292664	-0.0705161	0.0981744	2.42835	-0.156817	0.523443	1.239	1.70533	2.64534	-0.211689	0.904005	1.2737	2.09
2.06	-0.27326	0.0898084	-0.0757955	-0.143426	1.02223	-0.547528	0.500397	-0.167716	0.0451349	0.388669	-0.345906	0.241392	0	0.458666	-0.0913051	-0.22903	0.288673	-0.460319	0.164269	0	0.0353677	-0.0682737	0.100888	2.39067	-0.166681	0.531253	1.22321	1.70473	2.62525	-0.220184	0.910976	1.27823	2.09
2.07	-0.255647	0.0870692	-0.0754373	-0.136591	1.04394	-0.547049	0.427331	-0.177697	0.0104278	0.271062	-0.486097	0.271225	0	0.383965	-0.0873449	-0.246565	0.168653	-0.583226	0.188667	0	0.0416194	-0.0638221	0.101748	2.35101	-0.17813	0.540428	1.20753	1.70893	2.60523	-0.232192	0.925565	1.28424	2.09
2.08	-0.239534	0.0835034	-0.0752325	-0.130448	1.06474	-0.546436	0.35602	-0.181206	-0.0188483	0.155875	-0.591164	0.282811	0	0.317994	-0.0838954	-0.252213	0.0677265	-0.633004	0.228706	0	0.047509	-0.0593148	0.101229	2.31067	-0.191516	0.548862	1.19311	1.7131	2.58775	-0.245209	0.947178	1.28876	2.09
2.09	-0.226874	0.0796083	-0.0766336	-0.125446	1.08421	-0.545496	0.296406	-0.178783	-0.0449184	0.063347	-0.631591	0.280962	0	0.270365	-0.0832827	-0.252178	0.00428637	-0.618709	0.268089	0	0.0541281	-0.0555626	0.100868	2.2729	-0.207318	0.560547	1.17953	1.7155	2.57477	-0.257303	0.972153	1.29026	2.09
2.1	-0.219665	0.075872	-0.0788	-0.122205	1.10195	-0.544392	0.266877	-0.174707	-0.11491	0.023464	-0.627092	0.292694	0	0.251477	-0.0875734	-0.293669	0	-0.594845	0.307962	0	0.0620922	-0.0521839	0.101524	2.24214	-0.226669	0.583152	1.16665	1.71197	2.5636	-0.265787	0.986142	1.28725	2.09
2.11	-0.217591	0.0730389	-0.0806091	-0.120297	1.1181	-0.543308	0.269746	-0.175765	-0.255912	0.0404277	-0.621413	0.33399	0	0.252799	-0.0960405	-0.372104	0.013251	-0.593187	0.337711	0	0.0727008	-0.0502099	0.100345	2.2145	-0.247678	0.610498	1.15586	1.70336	2.5601	-0.277077	1.01555	1.29144	2.09
2.12	-0.217339	0.0706036	-0.0806757	-0.11911	1.13294	-0.542452	0.283309	-0.186651	-0.407273	0.0835856	-0.630977	0.36553	0	0.261517	-0.109101	-0.449543	0.0516574	-0.599821	0.351475	0	0.0832895	-0.0487651	0.101793	2.18715	-0.271585	0.633902	1.15226	1.69022	2.54975	-0.282673	1.02564	1.29401	2.09
2.13	-0.215251	0.0679212	-0.0798113	-0.117701	1.14712	-0.541566	0.284689	-0.195379	-0.469609	0.113183	-0.641644	0.347813	0	0.264302	-0.120739	-0.466746	0.0832467	-0.601408	0.333037	0	0.0916989	-0.0479241	0.106745	2.15553	-0.297712	0.644349	1.15712	1.68344	2.53221	-0.285467	1.02345	1.29988	2.09
2.14	-0.209547	0.064608	-0.077299	-0.115961	1.16092	-0.540717	0.273251	-0.197488	-0.452408	0.124641	-0.646042	0.320668	0	0.260688	-0.12841	-0.431083	0.104838	-0.600277	0.300256	0	0.0952742	-0.0471104	0.1135	2.12042	-0.325577	0.643847	1.17098	1.67588	2.50894	-0.287743	1.01084	1.31057	2.09
2.15	-0.19768	0.0605847	-0.0726157	-0.113955	1.17446	-0.540049	0.24968	-0.192968	-0.376663	0.122891	-0.651453	0.281744	0	0.249183	-0.13214	-0.370779	0.118897	-0.600598	0.266201	0	0.090143	-0.0458556	0.118487	2.08342	-0.351442	0.634276	1.19011	1.66938	2.48432	-0.29189	0.993992	1.32547	2.09
2.16	-0.180204	0.0561933	-0.0656102	-0.111734	1.18751	-0.539637	0.221402	-0.189696	-0.314795	0.125076	-0.655331	0.261469	0	0.231386	-0.134549	-0.324516	0.130113	-0.598732	0.250856	0	0.0773956	-0.0441365	0.119224	2.04395	-0.371591	0.615314	1.20917	1.67423	2.46042	-0.29811	0.977663	1.34174	2.09
2.17	-0.159659	0.0515888	-0.056673	-0.109308	1.19976	-0.539416	0.192228	-0.188413	-0.293679	0.133064	-0.655409	0.261138	0	0.210474	-0.136889	-0.299036	0.139787	-0.593261	0.248986	0	0.061464	-0.0423031	0.116403	2.00034	-0.387216	0.589088	1.22766	1.68148	2.43577	-0.303244	0.962281	1.35512	2.09
2.18	-0.138846	0.0471171	-0.0466678	-0.106766	1.21101	-0.539273	0.162226	-0.186984	-0.303396	0.139511	-0.653028	0.266939	0	0.189593	-0.139281	-0.284664	0.147762	-0.582652	0.24953	0	0.0464144	-0.0408511	0.111679	1.95154	-0.399688	0.556769	1.24586	1.68839	2.40959	-0.305338	0.947698	1.36302	2.09
2.19	-0.120178	0.0427805	-0.036747	-0.104322	1.22117	-0.5391	0.133395	-0.18469	-0.334379	0.141551	-0.648609	0.279021	0	0.171457	-0.142135	-0.275467	0.154422	-0.563488	0.250579	0	0.034393	-0.0390543	0.105575	1.89865	-0.40675	0.518651	1.26257	1.69555	2.38406	-0.306801	0.935888	1.36657	2.09
2.2	-0.105109	0.0381914	-0.0281097	-0.102187	1.23012	-0.538774	0.108335	-0.181096	-0.373004	0.14006	-0.642912	0.29968	0	0.157817	-0.146242	-0.271761	0.160946	-0.534297	0.253844	0	0.025929	-0.036022	0.0984093	1.84469	-0.406979	0.477271	1.27666	1.70309	2.36275	-0.310434	0.930638	1.36845	2.09
2.21	-0.0931314	0.0329517	-0.0207659	-0.100516	1.23778	-0.538234	0.0866681	-0.175396	-0.404458	0.135342	-0.637983	0.323993	0	0.148695	-0.152011	-0.271444	0.168765	-0.495816	0.258611	0	0.0194526	-0.0319325	0.0908881	1.79294	-0.40298	0.435831	1.28885	1.708	2.34713	-0.315262	0.931799	1.36985	2.09
2.22	-0.0839068	0.0275587	-0.0142646	-0.0993825	1.24409	-0.537511	0.068915	-0.168662	-0.428295	0.129841	-0.634842	0.346026	0	0.144354	-0.158506	-0.269527	0.17874	-0.450709	0.261916	0	0.0139623	-0.0273358	0.0832637	1.74602	-0.396162	0.396518	1.29854	1.71243	2.33768	-0.321697	0.937959	1.37226	2.09
2.23	-0.0775694	0.0233461	-0.00886282	-0.098562	1.24904	-0.536704	0.0565361	-0.163151	-0.447742	0.12723	-0.633056	0.357929	0	0.144457	-0.16347	-0.262406	0.189971	-0.403828	0.259876	0	0.0097324	-0.0227922	0.0761044	1.70528	-0.386545	0.361496	1.30534	1.72001	2.33556	-0.332726	0.9505	1.37811	2.09
2.24	-0.0741787	0.0215343	-0.00486851	-0.097675	1.25275	-0.535941	0.0503375	-0.161248	-0.463585	0.130195	-0.6311	0.358326	0	0.147875	-0.164809	-0.249073	0.200357	-0.360634	0.249028	0	0.00750523	-0.0195002	0.0705952	1.67005	-0.376417	0.332026	1.31129	1.73239	2.33998	-0.348213	0.969035	1.38838	2.09
